<?xml version="1.0" encoding="utf-8"?>
<svg width="94px" height="94px" viewBox="0 0 94 94" version="1.1" xmlns:xlink="http://www.w3.org/1999/xlink" xmlns="http://www.w3.org/2000/svg">
  <path d="M25.6371 0.00120171C11.4768 0.00120171 0 11.4698 0 25.6199C0 50.2502 28.5907 73.7849 41.9481 84.2655C41.9506 84.2681 41.9532 84.2706 41.9557 84.2732C41.9659 84.2809 41.9761 84.2885 41.9863 84.2961C42.0778 84.3679 42.2023 84.4702 42.2923 84.5408L42.3 84.5331C43.6552 85.5564 45.3065 86.1118 47.0051 86.1157C48.7063 86.1135 50.3605 85.558 51.7178 84.5331L51.7178 84.5408C51.7459 84.5187 51.7814 84.4865 51.8096 84.4643C51.8291 84.449 51.8589 84.4338 51.8785 84.4184C51.899 84.4007 51.9194 84.3829 51.9397 84.3649C53.1298 83.4299 54.4368 82.398 55.8491 81.2534C57.6823 79.7659 58.7564 77.5206 58.7564 75.1602L58.7564 66.5442C58.7564 64.3835 60.5112 62.6299 62.6734 62.6299C64.8357 62.6299 66.5905 64.3835 66.5905 66.5442L66.5905 72.0104L66.5905 90.03C66.5706 91.4416 67.3127 92.7546 68.5329 93.4663C69.7531 94.1779 71.2622 94.1779 72.4823 93.4663C73.7025 92.7546 74.4447 91.4416 74.4247 90.03L74.4247 64.2736L74.4247 54.8013L74.4247 43.0584C74.4247 40.8977 76.1796 39.1441 78.3418 39.1441C80.504 39.1441 82.2589 40.8977 82.2589 43.0584L82.2589 54.9466L82.2589 58.7156C82.2389 60.1272 82.9811 61.4403 84.2013 62.1519C85.4214 62.8636 86.9305 62.8636 88.1507 62.1519C89.3709 61.4403 90.1131 60.1272 90.0931 58.7156L90.0931 42.0034C92.3303 37.1009 93.7728 32.0387 93.9796 26.912C94.4849 14.4058 85.5647 3.01484 73.2924 0.505778C56.7584 -2.86834 47.0051 11.7441 47.0051 11.7441C47.0051 11.7441 39.1706 0.00120171 25.6371 0.00120171ZM86 70C83.7909 70 82 71.7909 82 74C82 76.2091 83.7909 78 86 78C88.2091 78 90 76.2091 90 74C90 71.7909 88.2091 70 86 70Z" id="Shape" fill="#FFFFFF" stroke="none" />
</svg>