<?xml version="1.0" encoding="utf-8"?>
<svg width="20px" height="19px" viewBox="0 0 20 19" version="1.1" xmlns:xlink="http://www.w3.org/1999/xlink" xmlns="http://www.w3.org/2000/svg">
  <path d="M10.0049 2.91608e-05C9.71892 -0.00175623 9.45682 0.159213 9.32909 0.41507L6.75287 5.56744L0.635564 6.50885C0.356351 6.55199 0.125066 6.74836 0.037209 7.01688C-0.0506476 7.2854 0.0198298 7.5805 0.21954 7.78034L4.45107 12.0118L3.50867 18.1359C3.46567 18.4153 3.58341 18.6951 3.81322 18.8597C4.04303 19.0243 4.34587 19.0458 4.59658 18.9152L10 16.0958L15.4034 18.9152C15.6541 19.0458 15.957 19.0243 16.1868 18.8597C16.4166 18.6951 16.5343 18.4153 16.4913 18.1359L15.5489 12.0118L19.7805 7.78034C19.9802 7.5805 20.0506 7.2854 19.9628 7.01688C19.8749 6.74836 19.6437 6.55199 19.3644 6.50885L13.2471 5.56744L10.6709 0.41507C10.5448 0.16236 10.2873 0.00194372 10.0049 2.91608e-05L10.0049 2.91608e-05ZM10.0667 1.00001L12.5234 5.88436C12.6519 6.14005 12.8971 6.31795 13.1812 6.36155L19.1333 7.27235L15.0529 11.3285C14.8533 11.527 14.7607 11.8082 14.8037 12.0856L15.7188 18L10.4763 15.2814C10.2196 15.1484 9.91373 15.1484 9.65701 15.2814L4.41457 18L5.32966 12.0856C5.37264 11.8082 5.28007 11.527 5.0804 11.3285L1 7.27235L6.95213 6.36155C7.23626 6.31795 7.48147 6.14005 7.60989 5.88436L10.0667 1.00001Z" id="Shape" fill="#FFFFFF" stroke="none" />
</svg>