<?xml version="1.0" encoding="utf-8"?>
<svg width="21px" height="18px" viewBox="0 0 21 18" version="1.1" xmlns:xlink="http://www.w3.org/1999/xlink" xmlns="http://www.w3.org/2000/svg">
  <path d="M5.93478 0C2.66245 0 0 2.60407 0 5.80465C0 12.3959 7.62177 15.6488 10.2147 17.7628L10.5 18L10.7853 17.7628C13.3782 15.6488 21 12.3959 21 5.80465C21 2.60407 18.3376 0 15.0652 0C13.2142 0 11.5878 0.859884 10.5 2.16279C9.4122 0.859884 7.78584 0 5.93478 0ZM5.97619 1C7.7115 1 9.22768 1.88035 10.1183 3.20786L10.5 3.76681L10.8817 3.20786C11.7723 1.88035 13.2885 1 15.0238 1C17.777 1 20 3.19738 20 5.91878C20 11.6865 13.4829 14.6716 10.5 17C7.51711 14.6716 1 11.6865 1 5.91878C1 3.19738 3.22303 1 5.97619 1Z" id="Shape" fill="#FFFFFF" stroke="none" />
</svg>